<svg id="Layer_1" data-name="Layer 1" xmlns="http://www.w3.org/2000/svg" viewBox="0 0 82.88 88.29"><defs><style>.cls-1{fill:#7ac142;}.cls-2{fill:#6eb43f;}.cls-3{fill:#faa635;}.cls-4{fill:#f58026;}</style></defs><path class="cls-1" d="M203.11,495.75c-.06.06-1.35,1-2.89,2.09s-2.82,2-2.91,2.12-1.54,1.19-3.22,2.45-3.14,2.34-3.23,2.46-1.32,1.1-2.73,2.24c-4.69,3.77-10.8,9.18-17.28,15.28a47.76,47.76,0,0,1-4.79,4.27,54.67,54.67,0,0,1-4.88-4.57c-12.43-12.56-14-14.15-13.75-14.15s0-.19-.33-.43c-1.23-.92,0-.89,4,.09s8.11,2.27,14.4,4.36a27.46,27.46,0,0,0,3,.89,24.74,24.74,0,0,0,3.31-1.75c9.3-5.43,27.78-14.79,29.31-14.83a3.93,3.93,0,0,0,1.14-.46c.43-.21.83-.33.89-.27A.15.15,0,0,1,203.11,495.75Z" transform="translate(-130.85 -495.52)"/><path class="cls-1" d="M193,554.59c-5.15-5.31-10.13-10.4-11-11.36-3.16-3.19-5.92-6.07-7.64-8a78,78,0,0,1,16.91.13c1.35,2.36,2.79,4.94,7.09,12.46,3.07,5.31,6.35,11.11,7.34,12.89s2.05,3.62,2.36,4.14c1.93,3.22,5.56,9.79,5.71,10.38S208.3,570.34,193,554.59Z" transform="translate(-130.85 -495.52)"/><path class="cls-2" d="M211.73,499.41c-.52.73-1.65,2.24-2.54,3.34-1.54,2-5.93,7.74-8.2,10.87-4.82,6.59-11.66,17-11.66,17.74a7.32,7.32,0,0,0,.86,2.21l1,1.81a78,78,0,0,0-16.91-.13,13,13,0,0,1-1.87-2.27c0-.7,10.89-11.2,18.72-18,4.2-3.69,8.62-7.43,10.28-8.72.86-.68,1.6-1.29,1.69-1.38.55-.58,9.15-6.75,9.42-6.75A5.63,5.63,0,0,1,211.73,499.41Z" transform="translate(-130.85 -495.52)"/><path class="cls-3" d="M155.78,538c-.7.76-2,2.21-2.82,3.22s-1.6,1.9-1.69,2c-.4.37-7.52,9.89-8.9,11.85-2.76,4-4.48,6.48-4.6,6.72s-1.23,1.94-2.52,3.93-2.4,3.68-2.4,3.75a20.68,20.68,0,0,1-2,2.91c-.12,0,2.15-6.87,2.58-7.82.15-.34,1.1-2.71,2.15-5.22a185.51,185.51,0,0,1,9.76-20.78c.76-1.29,1-1.29,0-5.22a48.08,48.08,0,0,1,12.49-.46c.37.43.61.74.73.86C159,534.27,158.42,535.13,155.78,538Z" transform="translate(-130.85 -495.52)"/><path class="cls-4" d="M157.81,532.89a48,48,0,0,0-12.49.46c-.28-1.13-.68-2.64-1.2-4.57-1.57-5.86-2.67-12-2.67-14.67,0-1.63,0-1.66.55-1.08a15.45,15.45,0,0,1,1.29,1.66c.4.58.89,1.23,1.07,1.44s1.08,1.35,2,2.58c2.88,3.78,8,10.16,9.91,12.4C156.83,531.75,157.41,532.37,157.81,532.89Z" transform="translate(-130.85 -495.52)"/><path class="cls-1" d="M207.59,583.81l-1.38-.74c-2.82-1.5-5.68-3.1-6-3.31a10.53,10.53,0,0,0-1.38-.86c-.58-.31-5-2.92-9.82-5.74s-9.14-5.37-9.67-5.68c-2.24-1.29-11.51-7-13.13-8-2.12-1.38-2.86-1.44-4.76-.34-1.6.92-6.57,4.15-7.18,4.67-.22.18-1.84,1.41-3.62,2.73-3.17,2.33-8.9,6.78-9.21,7.15-.58.64-6.57,5.49-6.78,5.49-.53,0,.46-1.56,4.75-7.82,1.51-2.21,2.86-4.05,3-4.15s.58-.7,1.07-1.38c.89-1.19,6.42-8.22,7.06-8.93.16-.21.52-.61.77-1,.77-.95,5.62-6.63,6.63-7.77,4.6-5.15,6.69-7.36,6.91-7.36a14.26,14.26,0,0,1,2.14,1.9c1,1.08,10.1,10.22,20.2,20.38s18.78,18.94,19.37,19.58Z" transform="translate(-130.85 -495.52)"/></svg>